<?xml version="1.0" encoding="utf-8"?>
<!-- Generator: Adobe Illustrator 16.0.4, SVG Export Plug-In . SVG Version: 6.00 Build 0)  -->
<!DOCTYPE svg PUBLIC "-//W3C//DTD SVG 1.1//EN" "http://www.w3.org/Graphics/SVG/1.1/DTD/svg11.dtd">
<svg version="1.1" id="Layer_1" xmlns="http://www.w3.org/2000/svg" xmlns:xlink="http://www.w3.org/1999/xlink" x="0px" y="0px"
	 width="50.581px" height="26.591px" viewBox="0 0 50.581 26.591" enable-background="new 0 0 50.581 26.591" xml:space="preserve">
<path fill="#8BC53F" d="M48.621,20.916c0,1.988-1.611,3.6-3.6,3.6H5.75c-1.988,0-3.6-1.611-3.6-3.6V5.835c0-1.988,1.611-3.6,3.6-3.6
	h39.271c1.988,0,3.6,1.611,3.6,3.6V20.916z"/>
<path fill-rule="evenodd" clip-rule="evenodd" fill="#FFFFFF" d="M25.386,4.707c-1.001,0-1.813,0.812-1.813,1.813
	s0.812,1.812,1.813,1.812s1.812-0.812,1.812-1.812S26.387,4.707,25.386,4.707L25.386,4.707z M22.322,21.927
	c-0.018,0.286,0.256,0.628,0.554,0.628c0.278,0,0.641-0.095,0.937-0.392c0.243-0.243,0.382-0.562,0.447-0.895l0.62-3.175h0.506
	h0.506l0.621,3.175c0.065,0.333,0.203,0.651,0.445,0.895c0.298,0.297,0.659,0.392,0.938,0.392c0.298,0,0.571-0.342,0.553-0.628
	l-0.255-3.833h0.818c0.309,0,0.557-0.251,0.557-0.559c0-0.082-0.017-0.16-0.05-0.229l-1.688-4.642l-0.006-0.093l1.34,1.803
	c0.325,0.435,0.602,0.821,1.215,0.814c0.316,0.015,0.584-0.239,0.584-0.558c0-0.103-0.028-0.199-0.077-0.281l-2.254-4.535
	c-0.177-0.312-0.431-0.549-0.75-0.715c-0.242-0.127-0.521-0.21-0.824-0.21h-1.673h-1.674c-0.303,0-0.581,0.083-0.824,0.21
	c-0.317,0.166-0.572,0.403-0.749,0.715l-2.254,4.535c-0.048,0.082-0.077,0.179-0.077,0.281c0,0.318,0.269,0.572,0.585,0.558
	c0.612,0.007,0.889-0.38,1.213-0.814l1.342-1.803l-0.007,0.093l-1.688,4.642c-0.033,0.069-0.051,0.147-0.051,0.229
	c0,0.308,0.25,0.559,0.558,0.559h0.818L22.322,21.927z"/>
</svg>
