<?xml version="1.0" encoding="utf-8"?>
<!-- Generator: Adobe Illustrator 16.0.4, SVG Export Plug-In . SVG Version: 6.00 Build 0)  -->
<!DOCTYPE svg PUBLIC "-//W3C//DTD SVG 1.1//EN" "http://www.w3.org/Graphics/SVG/1.1/DTD/svg11.dtd">
<svg version="1.1" id="Layer_1" xmlns="http://www.w3.org/2000/svg" xmlns:xlink="http://www.w3.org/1999/xlink" x="0px" y="0px"
	 width="50.581px" height="26.591px" viewBox="0 0 50.581 26.591" enable-background="new 0 0 50.581 26.591" xml:space="preserve">
<path fill="none" stroke="#8BC53F" stroke-width="0.5" stroke-miterlimit="10" d="M48.622,20.966c0,1.988-1.611,3.6-3.6,3.6H5.751
	c-1.988,0-3.6-1.611-3.6-3.6V5.886c0-1.988,1.611-3.6,3.6-3.6h39.271c1.988,0,3.6,1.611,3.6,3.6V20.966z"/>
<path fill="#8BC53F" d="M30.803,16.152c0,0,0.232,0.393-3.229,3.291c0,0-0.155,0.196-0.374-0.025
	c-0.039-0.039-0.529-1.203-1.944-1.203c-0.843,0-1.505,0.459-1.817,1.116c-0.042,0.059-0.174,0.205-0.385,0.075
	c0,0-3.009-2.468-3.177-3.008c-0.167-0.541-0.491-1.388,0.11-7.244c0,0,0.2-1.639,0.381-1.916c0,0,0.207-1.081,1.73-1.694
	s6.096-0.098,6.096-0.098s1.705,0.246,2.144,1.916C30.776,9.031,31.165,14.777,30.803,16.152z M28.272,8.785h-6.052v3.754h6.052
	V8.785z M25.36,14.857c-1.179,0-2.135,0.396-2.135,0.883s0.956,0.883,2.135,0.883s2.135-0.396,2.135-0.883
	S26.539,14.857,25.36,14.857z"/>
<rect x="24.624" y="19.136" fill="#8BC53F" width="1.325" height="3.128"/>
</svg>
