<?xml version="1.0" encoding="utf-8"?>
<!-- Generator: Adobe Illustrator 16.0.4, SVG Export Plug-In . SVG Version: 6.00 Build 0)  -->
<!DOCTYPE svg PUBLIC "-//W3C//DTD SVG 1.1//EN" "http://www.w3.org/Graphics/SVG/1.1/DTD/svg11.dtd">
<svg version="1.1" id="Layer_1" xmlns="http://www.w3.org/2000/svg" xmlns:xlink="http://www.w3.org/1999/xlink" x="0px" y="0px"
	 width="50.581px" height="26.591px" viewBox="0 0 50.581 26.591" enable-background="new 0 0 50.581 26.591" xml:space="preserve">
<g>
	<path fill="#8BC53F" d="M48.622,20.902c0,1.988-1.611,3.6-3.6,3.6H5.751c-1.988,0-3.6-1.612-3.6-3.6V5.823
		c0-1.988,1.611-3.6,3.6-3.6h39.271c1.988,0,3.6,1.612,3.6,3.6V20.902z"/>
	<g>
		<rect x="24.842" y="12.604" fill="#FFFFFF" width="1.557" height="1.36"/>
		<path fill="#FFFFFF" d="M23.981,12.604h-1.521c-0.306,0-0.575,0.206-0.656,0.501l-0.595,2.182l-1.119-6.331
			c-0.054-0.299-0.301-0.529-0.605-0.559c-0.021-0.003-0.045-0.004-0.066-0.004c-0.282,0-0.531,0.171-0.633,0.434l-1.444,3.714
			l-0.024,0.063h-0.068h-2.443c-0.375,0-0.68,0.306-0.68,0.681c0,0.375,0.305,0.68,0.68,0.68h2.977c0.283,0,0.531-0.171,0.633-0.434
			l0.625-1.605l0.131-0.334l0.061,0.353l1.156,6.604c0.055,0.311,0.323,0.548,0.639,0.562c0.012,0,0.021,0.001,0.031,0.001
			c0.307,0,0.576-0.206,0.656-0.501l1.248-4.572l0.019-0.074h0.077h0.924V12.604z"/>
		<path fill="#D0D2D3" d="M37.308,12.62v-0.016h-3.213c-0.307,0-0.576,0.206-0.656,0.501l-0.595,2.182l-1.12-6.331
			c-0.054-0.299-0.3-0.529-0.604-0.559c-0.023-0.003-0.045-0.004-0.068-0.004c-0.281,0-0.53,0.171-0.633,0.434l-1.443,3.714
			l-0.025,0.063h-0.068h-0.775h-0.854v1.36h0.888h1.274c0.283,0,0.532-0.171,0.635-0.434l0.624-1.605l0.13-0.334l0.062,0.353
			l1.155,6.604c0.055,0.311,0.324,0.548,0.64,0.562c0.011,0,0.021,0.001,0.031,0.001c0.306,0,0.575-0.206,0.656-0.501l1.247-4.572
			l0.02-0.074h0.076h2.607v-0.014c0.342-0.036,0.611-0.316,0.611-0.666C37.909,12.938,37.646,12.66,37.308,12.62z"/>
	</g>
</g>
</svg>
