<?xml version="1.0" encoding="utf-8"?>
<!-- Generator: Adobe Illustrator 16.0.4, SVG Export Plug-In . SVG Version: 6.00 Build 0)  -->
<!DOCTYPE svg PUBLIC "-//W3C//DTD SVG 1.1//EN" "http://www.w3.org/Graphics/SVG/1.1/DTD/svg11.dtd">
<svg version="1.1" id="Layer_1" xmlns="http://www.w3.org/2000/svg" xmlns:xlink="http://www.w3.org/1999/xlink" x="0px" y="0px"
	 width="50.581px" height="26.591px" viewBox="0 0 50.581 26.591" enable-background="new 0 0 50.581 26.591" xml:space="preserve">
<g>
	<path fill="#8BC53F" d="M48.621,20.975c0,1.988-1.611,3.6-3.6,3.6H5.75c-1.988,0-3.6-1.611-3.6-3.6V5.895
		c0-1.988,1.611-3.6,3.6-3.6h39.271c1.988,0,3.6,1.611,3.6,3.6V20.975z"/>
	<path fill="#FFFFFF" d="M25.385,20.943c2.672,0,4.838-2.165,4.838-4.837c0-1.19-0.432-2.28-1.145-3.122
		c-0.888-1.049-3.693-4.234-3.693-6.725c0,2.49-2.805,5.676-3.691,6.725c-0.713,0.842-1.144,1.932-1.144,3.122
		C20.55,18.778,22.715,20.943,25.385,20.943z"/>
</g>
</svg>
