<?xml version="1.0" encoding="utf-8"?>
<!-- Generator: Adobe Illustrator 16.0.4, SVG Export Plug-In . SVG Version: 6.00 Build 0)  -->
<!DOCTYPE svg PUBLIC "-//W3C//DTD SVG 1.1//EN" "http://www.w3.org/Graphics/SVG/1.1/DTD/svg11.dtd">
<svg version="1.1" id="Layer_1" xmlns="http://www.w3.org/2000/svg" xmlns:xlink="http://www.w3.org/1999/xlink" x="0px" y="0px"
	 width="50.581px" height="26.591px" viewBox="0 0 50.581 26.591" enable-background="new 0 0 50.581 26.591" xml:space="preserve">
<g>
	<path fill="none" stroke="#8BC53F" stroke-width="0.5" stroke-miterlimit="10" d="M48.621,21.006c0,1.988-1.611,3.6-3.6,3.6H5.75
		c-1.988,0-3.6-1.611-3.6-3.6V5.926c0-1.988,1.611-3.6,3.6-3.6h39.271c1.988,0,3.6,1.611,3.6,3.6V21.006z"/>
	<g>
		<path fill="#8BC53F" d="M26.414,14.148l5.928,2.157c1.137-1.511,1.447-2.772,1.447-2.772l0,0c0.082-0.263,0.135-0.541,0.153-0.829
			c0.016-0.244,0.007-0.484-0.027-0.718l-1.798-0.251L26.414,14.148z"/>
		<path fill="#8BC53F" d="M31.718,11.372l1.81,0.137c-0.291-1.411-1.427-2.512-2.854-2.754l-4.495,5.388L31.718,11.372z"/>
		<path fill="#8BC53F" d="M24.877,14.722l-4.752,1.608c0.394,0.624,0.914,1.301,1.596,1.97l1.297-1.719L24.877,14.722z"/>
		<path fill="#8BC53F" d="M25.213,14.729l-1.76,1.953l-1.209,1.784c0.99,0.873,2.289,1.713,3.99,2.352
			c0.707-0.353,1.334-0.736,1.891-1.135l-2.773-2.26L25.213,14.729z"/>
		<path fill="#8BC53F" d="M20.109,16.141l4.751-1.608l-5.341,0.534C19.674,15.395,19.867,15.758,20.109,16.141z"/>
		<path fill="#8BC53F" d="M29.719,8.479c-1.416-0.056-2.67,0.734-3.275,1.918c-0.51-1.229-1.697-2.115-3.113-2.171
			c-0.34-0.013-0.671,0.022-0.986,0.101l1.245,4.768l2.017,0.663l4.703-5.206C30.117,8.513,29.92,8.488,29.719,8.479z"/>
		<path fill="#8BC53F" d="M25.379,14.143l-2.041-0.583l-1.432-4.716c-0.225,0.065-0.441,0.153-0.646,0.259v3.145l-1.499,1.781
			c0.073,0.195,0.164,0.412,0.276,0.648L25.379,14.143z"/>
		<path fill="#8BC53F" d="M20.401,8.924c-1.062,0.696-1.71,1.944-1.575,3.295c0.029,0.287,0.092,0.562,0.184,0.822l0,0
			c0,0,0.104,0.365,0.388,0.933l1.315-1.921L20.401,8.924z"/>
		<path fill="#8BC53F" d="M30.293,18.114c0.623-0.609,1.109-1.227,1.488-1.803l-6.051-1.778v2.696l2.652,2.4
			c0.281-0.18,0.544-0.365,0.793-0.554l-3.445-1.847L30.293,18.114z"/>
		<path fill="#8BC53F" d="M26.178,17.469l3.379,1.966c0.425-0.299,0.807-0.609,1.15-0.922L26.178,17.469z"/>
	</g>
</g>
</svg>
