<?xml version="1.0" encoding="utf-8"?>
<!-- Generator: Adobe Illustrator 16.0.4, SVG Export Plug-In . SVG Version: 6.00 Build 0)  -->
<!DOCTYPE svg PUBLIC "-//W3C//DTD SVG 1.1//EN" "http://www.w3.org/Graphics/SVG/1.1/DTD/svg11.dtd">
<svg version="1.1" id="Layer_1" xmlns="http://www.w3.org/2000/svg" xmlns:xlink="http://www.w3.org/1999/xlink" x="0px" y="0px"
	 width="50.581px" height="26.591px" viewBox="0 0 50.581 26.591" enable-background="new 0 0 50.581 26.591" xml:space="preserve">
<path fill="#8BC53F" d="M48.512,20.985c0,1.988-1.611,3.6-3.6,3.6H5.641c-1.988,0-3.6-1.611-3.6-3.6V5.905
	c0-1.988,1.611-3.6,3.6-3.6h39.271c1.988,0,3.6,1.611,3.6,3.6V20.985z"/>
<g>
	<path fill="#FFFFFF" d="M34.533,16.975c-0.774,0.16-1.697,0.277-2.406,0.286c-0.355,0.019-0.656-0.04-0.871-0.043
		c-0.215-0.005-0.341-0.041-0.341-0.041c-0.41-0.055-0.823-0.084-1.226-0.218c-0.531-0.105-1.039-0.355-1.561-0.55l-1.746-0.67
		c-1.084-0.323-2.217-0.583-3.362-0.618c0.151-0.087,0.3-0.182,0.454-0.264c0.701-0.366,1.438-0.675,2.172-0.911
		c-0.059-0.03-0.111-0.072-0.154-0.123c-0.088,0.104-0.215,0.173-0.361,0.173c-0.059,0-0.113-0.014-0.166-0.034
		c-0.052,0.02-0.107,0.034-0.166,0.034c-0.265,0-0.479-0.215-0.479-0.479c0-0.122,0.049-0.231,0.124-0.315
		c-0.075-0.085-0.124-0.193-0.124-0.315c0-0.265,0.214-0.479,0.479-0.479c0.1,0,0.188,0.038,0.266,0.091
		c-0.017-0.048-0.031-0.097-0.031-0.15c0-0.06,0.015-0.116,0.035-0.169c-0.86,0.277-1.673,0.62-2.457,1.028
		c-0.315,0.17-0.625,0.356-0.935,0.544c0.239-0.729,0.367-1.51,0.373-2.301c-0.051-0.37-0.064-0.776-0.194-1.117
		c0,0-0.073-0.24-0.221-0.562c-0.153-0.32-0.369-0.724-0.604-1.091c-0.467-0.734-0.885-1.415-0.859-1.351
		c-0.357-0.57-0.583-1.071-0.744-1.156c-0.072-0.043-0.124,0.023-0.121,0.244c-0.004,0.223,0.037,0.61,0.227,1.165
		c0.205,0.657,0.555,1.409,0.777,1.975c0.115,0.287,0.182,0.53,0.247,0.702c0.041,0.175,0.063,0.274,0.063,0.274
		c0.123,0.323,0.146,0.638,0.188,0.958c-0.017,0.848-0.185,1.702-0.565,2.515c-0.225,0.472-0.49,0.933-0.776,1.39
		c-0.453,0.418-0.888,0.863-1.272,1.376c-0.684,0.922-1.24,2.065-1.309,3.329c0.008,0.053,0.061,0.158,0.074,0.18
		c0.4,0.593,0.779,0.61,1.075,0.518c0.302-0.103,0.54-0.327,0.669-0.483c0.045-0.045,0.045-0.058,0.045-0.094
		c0.037-0.812,0.41-1.616,0.945-2.34c0.316-0.427,0.7-0.813,1.109-1.182c0.61-0.08,1.222-0.174,1.824-0.103
		c0.961-0.019,1.898,0.175,2.826,0.429c0.016,0.026,0.037,0.062,0.064,0.108c0.057,0.089,0.133,0.229,0.23,0.368
		c0.195,0.268,0.451,0.622,0.707,0.974c0.242,0.333,0.445,0.662,0.568,0.905c0.115,0.244,0.16,0.402,0.16,0.402
		c0.062-0.02,0.326,0.759,0.308,0.752c0.104,0.331,0.313,0.778,0.683,0.084c0.277-0.412,0.227-1.17,0.213-1.148
		c0,0-0.078-0.251-0.229-0.599c-0.089-0.16-0.191-0.346-0.303-0.545c-0.121-0.178-0.251-0.369-0.381-0.56
		c-0.006-0.009-0.012-0.017-0.018-0.025l0.053,0.02c0.593,0.227,1.164,0.502,1.807,0.638c0.41,0.128,0.84,0.188,1.273,0.233
		c0,0,0.072,0.004,0.197,0.013c0.124,0.016,0.303,0.007,0.517-0.01c0.212-0.015,0.458-0.033,0.724-0.052
		c0.254-0.05,0.525-0.104,0.797-0.157c1.07-0.246,2.01-0.667,1.918-0.654C36.306,17.022,37.139,16.341,34.533,16.975z"/>
	<path fill="#D0D2D3" d="M35.417,9.201c-0.276,0.166-0.697,0.5-1.407,0.864c-0.842,0.426-1.942,0.712-2.842,0.877
		c-0.898,0.166-1.591,0.246-1.591,0.246l-0.729,0.139c0.073-0.101,0.141-0.207,0.192-0.316c0.245-0.433,0.373-0.845,0.479-1.134
		c0.102-0.276,0.162-0.449,0.141-0.42c0.053-0.131,0.107-0.272,0.168-0.422c0.065-0.112,0.123-0.221,0.173-0.324
		c0.124-0.167,0.225-0.303,0.239-0.392c0.021-0.081-0.051-0.119-0.266-0.037c-0.229,0.06-0.576,0.323-0.91,0.829
		c-0.393,0.59-0.734,1.312-1.122,1.63c-0.161,0.162-0.414,0.289-0.567,0.383c-0.161,0.096-0.25,0.149-0.25,0.149
		c-0.271,0.221-0.599,0.378-0.924,0.538l-0.249,0.125c-0.05,0.013-0.101,0.026-0.151,0.039c0.113,0.087,0.191,0.219,0.191,0.373
		c0,0.007-0.004,0.013-0.004,0.02c0.033-0.007,0.064-0.021,0.102-0.021c0.264,0,0.479,0.215,0.479,0.479
		c0,0.206-0.131,0.378-0.313,0.446c0.044,0.072,0.077,0.153,0.077,0.245c0,0.1-0.039,0.188-0.091,0.265
		c0.646-0.169,1.313-0.313,2.002-0.444l1.462-0.278c0.001,0,1.303-0.304,2.568-0.818c1.285-0.473,2.379-1.334,2.261-1.282
		c0.899-0.721,1.331-1.576,1.306-1.811C35.825,9.023,35.697,9.035,35.417,9.201z"/>
</g>
</svg>
