<?xml version="1.0" encoding="utf-8"?>
<!-- Generator: Adobe Illustrator 16.0.4, SVG Export Plug-In . SVG Version: 6.00 Build 0)  -->
<!DOCTYPE svg PUBLIC "-//W3C//DTD SVG 1.1//EN" "http://www.w3.org/Graphics/SVG/1.1/DTD/svg11.dtd">
<svg version="1.1" id="Layer_1" xmlns="http://www.w3.org/2000/svg" xmlns:xlink="http://www.w3.org/1999/xlink" x="0px" y="0px"
	 width="50.581px" height="26.591px" viewBox="0 0 50.581 26.591" enable-background="new 0 0 50.581 26.591" xml:space="preserve">
<g>
	<g>
		<path fill="#FFFFFF" d="M37.136,7.077V6.428h1.647v0.648l-0.442,2.953h-0.763L37.136,7.077z M37.204,10.472h1.511v1.297h-1.511
			V10.472z"/>
	</g>
	<path fill="none" stroke="#8BC53F" stroke-width="0.5" stroke-miterlimit="10" d="M48.621,20.885c0,1.988-1.611,3.6-3.6,3.6H5.75
		c-1.988,0-3.6-1.611-3.6-3.6V5.805c0-1.988,1.611-3.6,3.6-3.6h39.271c1.988,0,3.6,1.611,3.6,3.6V20.885z"/>
	<g>
		<path fill="#8BC53F" d="M27.902,15.09c-0.779,0-0.742,0.557-0.742-0.222s-0.928-2.078-0.148-2.078
			c0.777,0,2.961,0.839,2.961,1.617C29.973,15.187,28.68,15.09,27.902,15.09z"/>
		<path fill="#8BC53F" d="M23.648,10.208c-0.777,0-0.74,0.557-0.74-0.223c0-0.778-0.928-2.078-0.15-2.078
			c0.779,0,2.961,0.84,2.961,1.618C25.719,10.304,24.428,10.208,23.648,10.208z"/>
		<path fill="#8BC53F" d="M27.244,11.296c-0.777,0-0.74,0.557-0.74-0.221c0-0.779-0.928-2.078-0.15-2.078
			c0.779,0,2.961,0.838,2.961,1.616C29.314,11.393,28.023,11.296,27.244,11.296z"/>
		<path fill="#8BC53F" d="M25.174,15.158c-0.758-0.174-0.846,0.376-0.672-0.384c0.172-0.759-0.441-2.231,0.318-2.059
			c0.758,0.176,2.699,1.479,2.523,2.239C27.17,15.713,25.934,15.332,25.174,15.158z"/>
		<path fill="#8BC53F" d="M31.631,11.933c-0.193,0.753-0.404,0.964-1.158,0.771c-0.756-0.195-2.244,0.379-2.051-0.374
			c0.195-0.753,1.488-1.763,2.242-1.568C31.418,10.955,31.824,11.177,31.631,11.933z"/>
		<path fill="#8BC53F" d="M29.414,12.629c-0.195,0.753-0.404,0.963-1.16,0.77c-0.754-0.194-2.242,0.38-2.049-0.373
			c0.195-0.753,1.488-1.764,2.242-1.568C29.201,11.651,29.607,11.874,29.414,12.629z"/>
		<path fill="#8BC53F" d="M27.307,11.864c-0.193,0.754-0.402,0.964-1.158,0.771c-0.754-0.193-2.242,0.381-2.049-0.374
			c0.195-0.753,1.488-1.762,2.242-1.568S27.502,11.109,27.307,11.864z"/>
		<path fill="#8BC53F" d="M27.387,10.922c0.133,0.767,0.152,0.307-0.615,0.438c-0.768,0.133-2.307,1.434-2.439,0.667
			c-0.133-0.768,1.328-1.54,2.096-1.672C27.195,10.222,27.256,10.154,27.387,10.922z"/>
		<path fill="#8BC53F" d="M31.469,9.683c0.133,0.768,0.15,0.31-0.615,0.44c-0.768,0.132-2.309,1.433-2.439,0.665
			c-0.133-0.767,1.328-1.54,2.096-1.672S31.336,8.917,31.469,9.683z"/>
		<path fill="#8BC53F" d="M24.393,11.722c-0.193,0.755,0.012,0.344-0.742,0.148c-0.754-0.191-2.426,0.876-2.232,0.122
			c0.193-0.753,1.488-1.762,2.242-1.568S24.588,10.968,24.393,11.722z"/>
		<path fill="#8BC53F" d="M21.35,12.074c-0.193,0.754,0.014,0.343-0.74,0.15c-0.754-0.195-2.428,0.876-2.232,0.121
			c0.193-0.754,1.486-1.763,2.24-1.569C21.371,10.97,21.545,11.32,21.35,12.074z"/>
		<path fill="#8BC53F" d="M31.072,17.139c0.293-0.722,0.033-0.342,0.754-0.05c0.723,0.293,2.523-0.544,2.23,0.178
			s-1.709,1.549-2.432,1.257C30.904,18.231,30.779,17.861,31.072,17.139z"/>
		<path fill="#8BC53F" d="M23.791,13.414c-0.193,0.755-0.246,0.69-1,0.497c-0.754-0.195-2.242,0.379-2.049-0.374
			s1.486-1.763,2.24-1.568C23.736,12.162,23.984,12.66,23.791,13.414z"/>
		<path fill="#8BC53F" d="M24.02,13.083c0.738,0.239,0.672,0.287,0.434,1.029c-0.236,0.74,0.246,2.261-0.494,2.022
			s-1.67-1.589-1.434-2.331C22.764,13.062,23.277,12.844,24.02,13.083z"/>
		<path fill="#8BC53F" d="M22.475,16.728c0.74,0.238,0.674,0.287,0.434,1.029c-0.236,0.74,0.248,2.261-0.492,2.022
			c-0.742-0.238-1.672-1.589-1.434-2.331C21.221,16.708,21.732,16.49,22.475,16.728z"/>
		<path fill="#8BC53F" d="M28.291,8.907c0.74,0.239,0.674,0.289,0.436,1.029s0.246,2.261-0.494,2.022
			c-0.742-0.238-1.672-1.589-1.434-2.331C27.037,8.887,27.549,8.668,28.291,8.907z"/>
		<path fill="#8BC53F" d="M25.688,5.739c0.738,0.238,0.672,0.287,0.434,1.029c-0.236,0.74,0.248,2.261-0.494,2.022
			c-0.74-0.238-1.67-1.589-1.434-2.331C24.432,5.718,24.945,5.5,25.688,5.739z"/>
		<path fill="#8BC53F" d="M27.477,18.794c0.264,0.729,0.184,0.708-0.549,0.974c-0.73,0.265-1.637,1.576-1.902,0.847
			c-0.264-0.732,0.236-2.294,0.969-2.561C26.725,17.79,27.211,18.062,27.477,18.794z"/>
		<path fill="#8BC53F" d="M29.928,12.477c0.74,0.238,0.674,0.288,0.434,1.029c-0.236,0.739,0.248,2.261-0.492,2.022
			c-0.742-0.239-1.672-1.59-1.434-2.332C28.674,12.458,29.186,12.239,29.928,12.477z"/>
		<path fill="#8BC53F" d="M24.791,14.061c0.74,0.24,0.672,0.29,0.434,1.029c-0.236,0.741,0.248,2.261-0.494,2.023
			c-0.74-0.238-1.67-1.59-1.434-2.331C23.537,14.042,24.049,13.824,24.791,14.061z"/>
		<path fill="#8BC53F" d="M29.928,14.319c0.74,0.238,0.674,0.289,0.434,1.029c-0.236,0.74,0.248,2.261-0.492,2.022
			c-0.742-0.238-1.672-1.589-1.434-2.331C28.674,14.299,29.186,14.081,29.928,14.319z"/>
		<path fill="#8BC53F" d="M24.967,12.333c-0.193,0.753-0.352,1.325-1.105,1.132c-0.756-0.194-1.537-0.088-1.344-0.843
			c0.195-0.754,1.486-1.763,2.242-1.569C25.514,11.249,25.16,11.579,24.967,12.333z"/>
		<path fill="#8BC53F" d="M27.941,17.468c-0.729,0.274-1.287,0.475-1.562-0.253c-0.275-0.729-0.812-1.309-0.084-1.582
			c0.729-0.275,2.297,0.202,2.572,0.93C29.143,17.292,28.67,17.193,27.941,17.468z"/>
		<path fill="#8BC53F" d="M20.838,15.35c-0.193,0.753-0.352,1.324-1.105,1.132c-0.754-0.194-1.537-0.088-1.342-0.842
			c0.193-0.754,1.486-1.764,2.24-1.569C21.387,14.264,21.033,14.595,20.838,15.35z"/>
		<path fill="#8BC53F" d="M20.08,9.944c0.711,0.32,1.256,0.554,1.576-0.154c0.32-0.711,0.893-1.255,0.182-1.575
			c-0.709-0.321-2.305,0.058-2.625,0.769C18.893,9.692,19.371,9.624,20.08,9.944z"/>
		<path fill="#8BC53F" d="M26.945,13.056c-0.193,0.754-0.352,1.326-1.105,1.133s-1.537-0.089-1.344-0.842
			c0.193-0.755,1.488-1.764,2.242-1.568C27.492,11.971,27.139,12.301,26.945,13.056z"/>
		<path fill="#8BC53F" d="M30.002,9.063c-0.193,0.754-0.354,1.326-1.107,1.133s-1.537-0.089-1.342-0.842
			c0.193-0.755,1.486-1.764,2.242-1.568C30.549,7.977,30.195,8.308,30.002,9.063z"/>
		<path fill="#8BC53F" d="M32.791,10.467c-0.193,0.753-0.352,1.324-1.105,1.131c-0.756-0.193-1.539-0.087-1.344-0.842
			c0.193-0.754,1.486-1.762,2.242-1.569C33.338,9.381,32.984,9.712,32.791,10.467z"/>
		<path fill="#8BC53F" d="M31.639,13.056c-0.193,0.754-0.354,1.326-1.107,1.133s-1.537-0.089-1.342-0.842
			c0.193-0.755,1.486-1.764,2.24-1.568C32.186,11.971,31.832,12.301,31.639,13.056z"/>
		<path fill="#8BC53F" d="M34.156,14.293c-0.193,0.753-0.352,1.325-1.105,1.133c-0.754-0.194-1.537-0.089-1.344-0.842
			c0.195-0.755,1.488-1.764,2.242-1.569C34.703,13.208,34.352,13.54,34.156,14.293z"/>
	</g>
</g>
</svg>
