<?xml version="1.0" encoding="utf-8"?>
<!-- Generator: Adobe Illustrator 16.0.4, SVG Export Plug-In . SVG Version: 6.00 Build 0)  -->
<!DOCTYPE svg PUBLIC "-//W3C//DTD SVG 1.1//EN" "http://www.w3.org/Graphics/SVG/1.1/DTD/svg11.dtd">
<svg version="1.1" id="Layer_1" xmlns="http://www.w3.org/2000/svg" xmlns:xlink="http://www.w3.org/1999/xlink" x="0px" y="0px"
	 width="50.581px" height="26.591px" viewBox="0 0 50.581 26.591" enable-background="new 0 0 50.581 26.591" xml:space="preserve">
<g>
	<g>
		<path fill="#D0D2D3" d="M37.136,6.96V6.312h1.647V6.96l-0.442,2.953h-0.763L37.136,6.96z M37.204,10.356h1.511v1.297h-1.511
			V10.356z"/>
	</g>
	<path fill="none" stroke="#8BC53F" stroke-width="0.5" stroke-miterlimit="10" d="M48.621,20.935c0,1.988-1.611,3.6-3.6,3.6H5.75
		c-1.988,0-3.6-1.611-3.6-3.6V5.855c0-1.988,1.611-3.6,3.6-3.6h39.271c1.988,0,3.6,1.611,3.6,3.6V20.935z"/>
	<g>
		<path fill-rule="evenodd" clip-rule="evenodd" fill="#8BC53F" d="M22.693,6.958c0.374,1.858,0.655,2.131,0.849,4.583
			c-0.181,0.062-0.4,0.141-0.649,0.234c0.021,0.082,0.039,0.166,0.053,0.253c0.018,0.093,0.029,0.183,0.036,0.271
			c0.228-0.062,0.433-0.115,0.606-0.155c0.014,0.19,0.026,0.38,0.039,0.569c0.333-0.121,0.625-0.222,0.858-0.297
			c0.062-1.287,0.149-2.559,0.263-3.768c-0.167-1.463-0.371-0.778-0.612-1.979C24.064,6.173,22.605,6.437,22.693,6.958L22.693,6.958
			z"/>
		<path fill-rule="evenodd" clip-rule="evenodd" fill="#8BC53F" d="M17.561,10.355c-1.203,0.646-2.54,2.064-2.531,4.293
			c0.01,3.346,2.184,6.059,4.495,5.408c1.411-0.397,1.53-2.236,1.798-3.908c0.281-1.746,1.204-2.643,0.971-4.01
			C21.914,9.935,19.247,9.451,17.561,10.355L17.561,10.355z"/>
		<path fill-rule="evenodd" clip-rule="evenodd" fill="#8BC53F" d="M33.211,8.628c-1.686-0.904-4.354-0.42-4.732,1.783
			c-0.234,1.367,0.689,2.264,0.971,4.01c0.268,1.672,0.387,3.511,1.798,3.908c2.311,0.648,4.485-2.064,4.495-5.408
			C35.751,10.691,34.414,9.275,33.211,8.628L33.211,8.628z"/>
		<path fill-rule="evenodd" clip-rule="evenodd" fill="#8BC53F" d="M27.391,6.933c0.076-0.521-1.386-0.758-1.449-0.26
			c-0.406,2.25-0.667,3.042-0.803,5.957l-0.014,0.279c-0.336,0.1-1.232,0.381-2.332,0.845c-0.057,0.175-0.122,0.351-0.191,0.53
			c1.086-0.42,2.041-0.629,2.496-0.715c-0.111,2.994-0.098,3.973,0.023,6.469c0.023,0.527,1.498,0.432,1.471-0.072
			c-0.117-2.43-0.131-3.354-0.019-6.322c0.521,0.113,1.31,0.317,2.181,0.656c-0.037-0.176-0.079-0.342-0.127-0.501
			c-0.834-0.356-1.561-0.61-2.029-0.763l0.016-0.341C26.748,9.82,27.001,9.092,27.391,6.933L27.391,6.933z"/>
		<path fill-rule="evenodd" clip-rule="evenodd" fill="#8BC53F" d="M27.334,11.597c-0.009,0.149-0.018,0.301-0.025,0.451
			c0.223,0.014,0.457,0.034,0.697,0.062c-0.049-0.144-0.092-0.289-0.128-0.436C27.691,11.646,27.51,11.621,27.334,11.597
			L27.334,11.597z"/>
		<path fill-rule="evenodd" clip-rule="evenodd" fill="#8BC53F" d="M24.521,20.377c-0.035-0.092-0.057-0.193-0.062-0.308l0,0
			c-0.061-1.264-0.095-0.623-0.099-2.111c-0.003-1.162,0.013-2.359,0.048-3.557c-0.227,0.059-0.449,0.123-0.672,0.191
			c0.129,2.646,0.16,3.205,0.098,5.379C23.826,20.215,24.166,20.357,24.521,20.377z"/>
	</g>
</g>
</svg>
