<?xml version="1.0" encoding="utf-8"?>
<!-- Generator: Adobe Illustrator 16.0.4, SVG Export Plug-In . SVG Version: 6.00 Build 0)  -->
<!DOCTYPE svg PUBLIC "-//W3C//DTD SVG 1.1//EN" "http://www.w3.org/Graphics/SVG/1.1/DTD/svg11.dtd">
<svg version="1.1" id="Layer_1" xmlns="http://www.w3.org/2000/svg" xmlns:xlink="http://www.w3.org/1999/xlink" x="0px" y="0px"
	 width="50.581px" height="26.591px" viewBox="0 0 50.581 26.591" enable-background="new 0 0 50.581 26.591" xml:space="preserve">
<g>
	<path fill="#8BC53F" d="M48.622,20.925c0,1.988-1.611,3.6-3.6,3.6H5.751c-1.988,0-3.6-1.612-3.6-3.6V5.846
		c0-1.988,1.611-3.6,3.6-3.6h39.271c1.988,0,3.6,1.612,3.6,3.6V20.925z"/>
	<g>
		<path fill="none" stroke="#D0D2D3" stroke-width="2" stroke-miterlimit="10" d="M27.938,6.977
			c-0.803-0.264-1.66-0.407-2.553-0.407c-0.891,0-1.748,0.143-2.551,0.407"/>
		<path fill="none" stroke="#D0D2D3" stroke-width="2" stroke-miterlimit="10" d="M22.356,7.151
			c-0.785,0.313-1.534,0.755-2.217,1.328c-0.684,0.573-1.248,1.233-1.693,1.952"/>
		<path fill="none" stroke="#D0D2D3" stroke-width="2" stroke-miterlimit="10" d="M18.192,10.873
			c-0.4,0.744-0.689,1.564-0.844,2.442c-0.156,0.877-0.164,1.748-0.043,2.583"/>
		<path fill="none" stroke="#D0D2D3" stroke-width="2" stroke-miterlimit="10" d="M17.394,16.4c0.174,0.827,0.479,1.642,0.924,2.413
			c0.445,0.772,0.998,1.443,1.629,2.007"/>
		<path fill="none" stroke="#FFFFFF" stroke-width="2" stroke-miterlimit="10" d="M30.827,20.819
			c0.631-0.562,1.184-1.234,1.629-2.006c0.445-0.771,0.75-1.585,0.924-2.413"/>
		<path fill="none" stroke="#FFFFFF" stroke-width="2" stroke-miterlimit="10" d="M33.468,15.898
			c0.121-0.836,0.113-1.706-0.043-2.583c-0.154-0.878-0.443-1.697-0.844-2.443"/>
		<path fill="none" stroke="#D0D2D3" stroke-width="2" stroke-miterlimit="10" d="M32.327,10.431
			c-0.445-0.718-1.01-1.379-1.693-1.952c-0.682-0.573-1.432-1.015-2.217-1.329"/>
		<polygon fill="#FFFFFF" points="34.097,16.308 25.026,15.963 21.183,13.879 25.521,13.333 		"/>
	</g>
</g>
</svg>
