<?xml version="1.0" encoding="utf-8"?>
<!-- Generator: Adobe Illustrator 16.0.4, SVG Export Plug-In . SVG Version: 6.00 Build 0)  -->
<!DOCTYPE svg PUBLIC "-//W3C//DTD SVG 1.1//EN" "http://www.w3.org/Graphics/SVG/1.1/DTD/svg11.dtd">
<svg version="1.1" id="Layer_1" xmlns="http://www.w3.org/2000/svg" xmlns:xlink="http://www.w3.org/1999/xlink" x="0px" y="0px"
	 width="50.581px" height="26.591px" viewBox="0 0 50.581 26.591" enable-background="new 0 0 50.581 26.591" xml:space="preserve">
<g>
	<g>
		<path fill="#D0D2D3" d="M37.136,7.525V6.876h1.647v0.648l-0.442,2.953h-0.763L37.136,7.525z M37.204,10.92h1.511v1.297h-1.511
			V10.92z"/>
	</g>
	<path fill="none" stroke="#8BC53F" stroke-width="0.5" stroke-miterlimit="10" d="M48.621,20.956c0,1.988-1.611,3.6-3.6,3.6H5.75
		c-1.988,0-3.6-1.611-3.6-3.6V5.875c0-1.988,1.611-3.6,3.6-3.6h39.271c1.988,0,3.6,1.611,3.6,3.6V20.956z"/>
	<path fill-rule="evenodd" clip-rule="evenodd" fill="#8BC53F" d="M34.105,11.529c0.998-0.932,0.613-2.591-0.998-2.838
		c-1.198-0.186-2.535-0.371-3.752-0.62c-0.715-0.156-1.27,0.25-1.086,1.212c0.314,1.735,0.384,3.738,0.17,5.474
		c-0.098,0.709,0.471,0.992,0.868,0.794C31.606,14.295,32.636,12.868,34.105,11.529L34.105,11.529z"/>
	<path fill-rule="evenodd" clip-rule="evenodd" fill="#8BC53F" d="M26.428,16.801c0.754-0.26,1.283-0.775,1.367-1.987
		c0.103-1.88-0.113-3.955-0.669-5.614c-0.337-1.037-1.12-1.925-2.044-2.352c-1.417-0.654-3.523-0.747-4.939-0.06
		c-2.11,1.123-3.467,3.229-3.467,5.731c0,2.289,1.041,4.212,0.963,6.658c-0.061,1.57,1.342,2.075,2.49,1.347
		C21.094,19.914,22.048,18.559,26.428,16.801z"/>
</g>
</svg>
