<svg ng-repeat="i in getNumber(number) track by $index" class="no-therapy-man" version="1.1" id="Layer_1" xmlns="http://www.w3.org/2000/svg" xmlns:xlink="http://www.w3.org/1999/xlink" x="0px" y="0px"
	 width="10.1px" height="18.5px" viewBox="0 0 10.1 18.5" style="enable-background:new 0 0 10.1 18.5;" xml:space="preserve">
<path d="M5.1,0.4c-1,0-1.8,0.8-1.8,1.8S4.1,4,5.1,4c1,0,1.8-0.8,1.8-1.8
	S6.1,0.4,5.1,0.4L5.1,0.4z M5.1,13.7l0.6,3.2c0.1,0.3,0.2,0.7,0.4,0.9c0.3,0.3,0.7,0.4,0.9,0.4c0.3,0,0.6-0.3,0.6-0.6l-0.3-3.8
	L7,8.3l0-0.1L8.3,10c0.3,0.4,0.6,0.8,1.2,0.8c0.3,0,0.6-0.2,0.6-0.6c0-0.1,0-0.2-0.1-0.3L7.8,5.5C7.6,5.1,7.4,4.9,7.1,4.7
	C6.8,4.6,6.5,4.5,6.2,4.5H5.1H3.9c-0.3,0-0.6,0.1-0.8,0.2C2.8,4.9,2.5,5.1,2.3,5.5L0.1,10C0,10.1,0,10.2,0,10.3
	c0,0.3,0.3,0.6,0.6,0.6c0.6,0,0.9-0.4,1.2-0.8l1.3-1.8l0,0.1l-0.4,5.4l-0.3,3.8c0,0.3,0.3,0.6,0.6,0.6c0.3,0,0.6-0.1,0.9-0.4
	c0.2-0.2,0.4-0.6,0.4-0.9L5.1,13.7z"/>
</svg>
